<?xml version="1.0" encoding="utf-8"?>
<!-- Generator: Adobe Illustrator 24.2.1, SVG Export Plug-In . SVG Version: 6.00 Build 0)  -->
<svg version="1.1" id="Capa_1" xmlns="http://www.w3.org/2000/svg" xmlns:xlink="http://www.w3.org/1999/xlink" x="0px" y="0px"
	 viewBox="0 0 160 160" style="enable-background:new 0 0 160 160;" xml:space="preserve">
<style type="text/css">
	.st0{fill-rule:evenodd;clip-rule:evenodd;fill:#00207F;stroke:#FF7704;stroke-width:10;}
	.st1{fill:#FFFFFF;}
</style>
<g id="Page-2">
	<g id="home" transform="translate(-320.000000, -831.000000)">
		<g id="Group-5" transform="translate(325.000000, 836.000000)">
			<circle id="Oval" class="st0" cx="75" cy="75" r="75"/>
			<path id="Shape" class="st1" d="M57.2,67H40.8c-1.5,0-2.8,1.2-2.8,2.6v39.7c0,1.5,1.2,2.6,2.8,2.6h16.5c1.5,0,2.8-1.2,2.8-2.6
				V69.6C60,68.2,58.8,67,57.2,67z M54.5,106.7h-11V72.3h11V106.7z"/>
			<path id="Shape_1_" class="st1" d="M83.2,37H66.8c-1.5,0-2.8,1.2-2.8,2.7v69.6c0,1.5,1.2,2.7,2.8,2.7h16.5c1.5,0,2.8-1.2,2.8-2.7
				V39.7C86,38.2,84.8,37,83.2,37z M80.5,106.6h-11V42.4h11V106.6z"/>
			<path id="Shape_2_" class="st1" d="M110.2,59H93.8c-1.5,0-2.8,1.2-2.8,2.7v47.7c0,1.5,1.2,2.7,2.8,2.7h16.5
				c1.5,0,2.8-1.2,2.8-2.7V61.7C113,60.2,111.8,59,110.2,59z M107.5,106.7h-11V64.3h11V106.7z"/>
		</g>
	</g>
</g>
</svg>
