<?xml version="1.0" encoding="utf-8"?>
<!-- Generator: Adobe Illustrator 24.2.1, SVG Export Plug-In . SVG Version: 6.00 Build 0)  -->
<svg version="1.1" id="Capa_1" xmlns="http://www.w3.org/2000/svg" xmlns:xlink="http://www.w3.org/1999/xlink" x="0px" y="0px"
	 viewBox="0 0 215 49" style="enable-background:new 0 0 215 49;" xml:space="preserve">
<style type="text/css">
	.st0{filter:url(#Adobe_OpacityMaskFilter);}
	.st1{fill-rule:evenodd;clip-rule:evenodd;fill:#FFFFFF;}
	.st2{mask:url(#mask-2_1_);fill-rule:evenodd;clip-rule:evenodd;fill:#FFFFFF;}
	.st3{filter:url(#Adobe_OpacityMaskFilter_1_);}
	.st4{mask:url(#mask-4_1_);fill-rule:evenodd;clip-rule:evenodd;fill:#FFFFFF;}
	.st5{fill-rule:evenodd;clip-rule:evenodd;fill:#FF7704;}
	.st6{filter:url(#Adobe_OpacityMaskFilter_2_);}
	.st7{mask:url(#mask-6_1_);fill-rule:evenodd;clip-rule:evenodd;fill:#FFFFFF;}
	.st8{filter:url(#Adobe_OpacityMaskFilter_3_);}
	.st9{mask:url(#mask-8_1_);fill-rule:evenodd;clip-rule:evenodd;fill:#FFFFFF;}
	.st10{filter:url(#Adobe_OpacityMaskFilter_4_);}
	.st11{mask:url(#mask-8_2_);fill-rule:evenodd;clip-rule:evenodd;fill:#FFFFFF;}
	.st12{filter:url(#Adobe_OpacityMaskFilter_5_);}
	.st13{mask:url(#mask-8_3_);fill-rule:evenodd;clip-rule:evenodd;fill:#FF7704;}
	.st14{filter:url(#Adobe_OpacityMaskFilter_6_);}
	.st15{mask:url(#mask-8_4_);fill-rule:evenodd;clip-rule:evenodd;fill:#FF7704;}
	.st16{filter:url(#Adobe_OpacityMaskFilter_7_);}
	.st17{mask:url(#mask-8_5_);fill-rule:evenodd;clip-rule:evenodd;fill:#FF7704;}
</style>
<g id="Page-2">
	<g id="home" transform="translate(-250.000000, -34.000000)">
		<g id="Group-24" transform="translate(250.000000, 34.000000)">
			<g id="Group-3" transform="translate(87.000000, 13.000000)">
				<defs>
					<filter id="Adobe_OpacityMaskFilter" filterUnits="userSpaceOnUse" x="0.1" y="0.2" width="28.8" height="34.8">
						<feColorMatrix  type="matrix" values="1 0 0 0 0  0 1 0 0 0  0 0 1 0 0  0 0 0 1 0"/>
					</filter>
				</defs>
				<mask maskUnits="userSpaceOnUse" x="0.1" y="0.2" width="28.8" height="34.8" id="mask-2_1_">
					<g class="st0">
						<polygon id="path-1_1_" class="st1" points="0.1,0.2 28.9,0.2 28.9,35 0.1,35 						"/>
					</g>
				</mask>
				<path id="Fill-1" class="st2" d="M21.1,13.2c0-4.4-2.9-7-6.7-7c-3.8,0-6.7,2.6-6.7,7s2.9,7,6.7,7C18.2,20.2,21.1,17.6,21.1,13.2
					 M28.9,13.2c0,7.9-5.7,13-13.1,13c-3.3,0-6-1-7.9-3.1V35H0.1V0.6h7.3v2.9c1.9-2.2,4.8-3.3,8.3-3.3C23.1,0.2,28.9,5.3,28.9,13.2"
					/>
			</g>
			<path id="Fill-4" class="st1" d="M139.2,26c0-4.4-2.9-7-6.7-7c-3.8,0-6.8,2.6-6.8,7s2.9,7,6.8,7C136.4,33,139.2,30.4,139.2,26
				 M118,26c0-7.6,6.1-13,14.5-13c8.4,0,14.5,5.4,14.5,13c0,7.6-6.1,13-14.5,13C124.1,39,118,33.6,118,26"/>
			<path id="Fill-6" class="st1" d="M191,24.3V39h-7.4V25.5c0-4.1-1.9-6-5.2-6c-3.5,0-6.1,2.2-6.1,6.9V39H165V13.4h7v3
				c2-2.2,5-3.4,8.4-3.4C186.5,13,191,16.5,191,24.3"/>
			<g id="Group-10" transform="translate(194.000000, 7.000000)">
				<defs>
					<filter id="Adobe_OpacityMaskFilter_1_" filterUnits="userSpaceOnUse" x="0.5" y="0.1" width="20.2" height="31.4">
						<feColorMatrix  type="matrix" values="1 0 0 0 0  0 1 0 0 0  0 0 1 0 0  0 0 0 1 0"/>
					</filter>
				</defs>
				<mask maskUnits="userSpaceOnUse" x="0.5" y="0.1" width="20.2" height="31.4" id="mask-4_1_">
					<g class="st3">
						<polygon id="path-3_1_" class="st1" points="0.5,0.1 20.7,0.1 20.7,31.5 0.5,31.5 						"/>
					</g>
				</mask>
				<path id="Fill-8" class="st4" d="M20.7,29.9c-1.6,1.1-3.9,1.6-6.2,1.6c-6.2,0-9.9-3.1-9.9-9.1V12H0.5V6.3h4.1V0.1h7.7v6.2h6.6
					V12h-6.6v10.3c0,2.2,1.2,3.3,3.3,3.3c1.1,0,2.3-0.3,3.1-0.9L20.7,29.9z"/>
			</g>
			<path id="Fill-11" class="st1" d="M155,13.8c-1.4,0-2.8-0.3-4-0.8h0v26h8V13h0C157.8,13.5,156.4,13.8,155,13.8"/>
			<path id="Fill-13" class="st5" d="M155.5,0C153,0,151,2,151,4.5c0,0.6,0.1,1.2,0.4,1.8c0.1,0.3,0.3,0.7,0.6,0.9
				c0.8,1.1,2.1,1.8,3.6,1.8c2.5,0,4.5-2,4.5-4.5C160,2,158,0,155.5,0"/>
			<g id="Group-17" transform="translate(0.000000, 13.000000)">
				<defs>
					<filter id="Adobe_OpacityMaskFilter_2_" filterUnits="userSpaceOnUse" x="0" y="0.2" width="25.7" height="26.3">
						<feColorMatrix  type="matrix" values="1 0 0 0 0  0 1 0 0 0  0 0 1 0 0  0 0 0 1 0"/>
					</filter>
				</defs>
				<mask maskUnits="userSpaceOnUse" x="0" y="0.2" width="25.7" height="26.3" id="mask-6_1_">
					<g class="st6">
						<polygon id="path-5_1_" class="st1" points="0,0.2 25.7,0.2 25.7,26.5 0,26.5 						"/>
					</g>
				</mask>
				<path id="Fill-15" class="st7" d="M0,13.3C0,5.7,5.9,0.2,14.3,0.2c5.4,0,9.6,2.3,11.4,6.5L20,9.8c-1.4-2.4-3.4-3.5-5.7-3.5
					c-3.8,0-6.7,2.6-6.7,7.1s2.9,7.1,6.7,7.1c2.3,0,4.4-1,5.7-3.5l5.7,3.1c-1.9,4.1-6.1,6.5-11.4,6.5C5.9,26.5,0,21,0,13.3"/>
			</g>
			<defs>
				<filter id="Adobe_OpacityMaskFilter_3_" filterUnits="userSpaceOnUse" x="58" y="4" width="8" height="35">
					<feColorMatrix  type="matrix" values="1 0 0 0 0  0 1 0 0 0  0 0 1 0 0  0 0 0 1 0"/>
				</filter>
			</defs>
			<mask maskUnits="userSpaceOnUse" x="58" y="4" width="8" height="35" id="mask-8_1_">
				<g class="st8">
					<polygon id="path-7_1_" class="st1" points="0,48 215,48 215,0 0,0 					"/>
				</g>
			</mask>
			<polygon id="Fill-18" class="st9" points="58,39 66,39 66,4 58,4 			"/>
			<defs>
				<filter id="Adobe_OpacityMaskFilter_4_" filterUnits="userSpaceOnUse" x="73" y="4" width="8" height="35">
					<feColorMatrix  type="matrix" values="1 0 0 0 0  0 1 0 0 0  0 0 1 0 0  0 0 0 1 0"/>
				</filter>
			</defs>
			<mask maskUnits="userSpaceOnUse" x="73" y="4" width="8" height="35" id="mask-8_2_">
				<g class="st10">
					<polygon id="path-7_2_" class="st1" points="0,48 215,48 215,0 0,0 					"/>
				</g>
			</mask>
			<polygon id="Fill-20" class="st11" points="73,39 81,39 81,4 73,4 			"/>
			<defs>
				<filter id="Adobe_OpacityMaskFilter_5_" filterUnits="userSpaceOnUse" x="28" y="12" width="25" height="6">
					<feColorMatrix  type="matrix" values="1 0 0 0 0  0 1 0 0 0  0 0 1 0 0  0 0 0 1 0"/>
				</filter>
			</defs>
			<mask maskUnits="userSpaceOnUse" x="28" y="12" width="25" height="6" id="mask-8_3_">
				<g class="st12">
					<polygon id="path-7_3_" class="st1" points="0,48 215,48 215,0 0,0 					"/>
				</g>
			</mask>
			<path id="Fill-21" class="st13" d="M29.9,18H53v-4.2c0-1-0.8-1.8-1.7-1.8H29.7c0,0,0,0,0,0c-1.2,0-2.1,1.5-1.4,2.6L29.9,18z"/>
			<defs>
				<filter id="Adobe_OpacityMaskFilter_6_" filterUnits="userSpaceOnUse" x="33" y="23" width="21" height="6">
					<feColorMatrix  type="matrix" values="1 0 0 0 0  0 1 0 0 0  0 0 1 0 0  0 0 0 1 0"/>
				</filter>
			</defs>
			<mask maskUnits="userSpaceOnUse" x="33" y="23" width="21" height="6" id="mask-8_4_">
				<g class="st14">
					<polygon id="path-7_4_" class="st1" points="0,48 215,48 215,0 0,0 					"/>
				</g>
			</mask>
			<path id="Fill-22" class="st15" d="M35,29h19v-6H34.6h0c-1.3,0-2,1.5-1.3,2.6L35,29z"/>
			<defs>
				<filter id="Adobe_OpacityMaskFilter_7_" filterUnits="userSpaceOnUse" x="38" y="33" width="15" height="6">
					<feColorMatrix  type="matrix" values="1 0 0 0 0  0 1 0 0 0  0 0 1 0 0  0 0 0 1 0"/>
				</filter>
			</defs>
			<mask maskUnits="userSpaceOnUse" x="38" y="33" width="15" height="6" id="mask-8_5_">
				<g class="st16">
					<polygon id="path-7_5_" class="st1" points="0,48 215,48 215,0 0,0 					"/>
				</g>
			</mask>
			<path id="Fill-23" class="st17" d="M40,39h11.3c0.9,0,1.7-0.8,1.7-1.8V33H39.4h0c-1.2,0-1.8,1.4-1.1,2.5L40,39z"/>
		</g>
	</g>
</g>
</svg>
