<?xml version="1.0" encoding="utf-8"?>
<!-- Generator: Adobe Illustrator 24.2.1, SVG Export Plug-In . SVG Version: 6.00 Build 0)  -->
<svg version="1.1" id="Capa_1" xmlns="http://www.w3.org/2000/svg" xmlns:xlink="http://www.w3.org/1999/xlink" x="0px" y="0px"
	 viewBox="0 0 160 160" style="enable-background:new 0 0 160 160;" xml:space="preserve">
<style type="text/css">
	.st0{fill-rule:evenodd;clip-rule:evenodd;fill:#00207F;stroke:#FF7704;stroke-width:10;}
	.st1{fill:#FFFFFF;}
</style>
<g id="Page-2">
	<g id="home" transform="translate(-640.000000, -831.000000)">
		<g id="Group-6" transform="translate(645.000000, 836.000000)">
			<circle id="Oval-Copy" class="st0" cx="75" cy="75" r="75"/>
			<path id="Shape" class="st1" d="M75.5,37C54.8,37,38,53.8,38,74.5S54.8,112,75.5,112S113,95.2,113,74.5S96.2,37,75.5,37z
				 M75.5,106.2C58,106.2,43.8,92,43.8,74.5S58,42.8,75.5,42.8c17.5,0,31.7,14.2,31.7,31.7S93,106.2,75.5,106.2z"/>
			<path id="Path" class="st1" d="M93.1,61.8c-1.2-1.1-3-1-4.1,0.2L71.4,81.8l-8.5-8.8c-1.1-1.2-2.9-1.2-4.1,0c-1.1,1.1-1.2,3,0,4.2
				l10.6,11.1c0.5,0.6,1.3,0.9,2.1,0.9c0,0,0,0,0.1,0c0.8,0,1.5-0.4,2.1-1l19.6-22.1C94.3,64.7,94.2,62.9,93.1,61.8z"/>
		</g>
	</g>
</g>
</svg>
