<?xml version="1.0" encoding="utf-8"?>
<!-- Generator: Adobe Illustrator 24.2.1, SVG Export Plug-In . SVG Version: 6.00 Build 0)  -->
<svg version="1.1" id="Capa_1" xmlns="http://www.w3.org/2000/svg" xmlns:xlink="http://www.w3.org/1999/xlink" x="0px" y="0px"
	 viewBox="0 0 160 160" style="enable-background:new 0 0 160 160;" xml:space="preserve">
<style type="text/css">
	.st0{fill-rule:evenodd;clip-rule:evenodd;fill:#00207F;stroke:#FF7704;stroke-width:10;}
	.st1{fill:#FFFFFF;}
</style>
<g id="Page-2">
	<g id="home" transform="translate(-960.000000, -831.000000)">
		<g id="Group-7" transform="translate(965.000000, 836.000000)">
			<circle id="Oval-Copy-2" class="st0" cx="75" cy="75" r="75"/>
			<path id="Shape" class="st1" d="M62,91.2l6.6-6.7c4.7,4,10.8,6.4,17.5,6.4C100.9,91,113,78.9,113,64s-12.1-26.9-26.9-26.9
				c-8.4,0-15.9,3.8-20.8,9.8l-5.4-5.4h5.9V37H52.1l0,13.6h4.5l0-5.9l6,6c-5.4,9.5-4.6,21.7,2.8,30.6L58.7,88l-3.9-3.9L38,101l11,11
				l16.9-16.9L62,91.2z M66,54.1l4.4,4.4c-0.6,1.8-0.9,3.6-0.9,5.5c0,9.2,7.4,16.6,16.6,16.6c9.2,0,16.6-7.4,16.6-16.6
				c0-9.2-7.4-16.6-16.6-16.6c-5.5,0-10.4,2.6-13.5,6.9l-4.1-4.1c4.1-5.2,10.5-8.5,17.6-8.5c12.4,0,22.4,10.1,22.4,22.4
				c0,12.4-10,22.4-22.4,22.4c-12.4,0-22.4-10.1-22.4-22.4C63.7,60.5,64.5,57.1,66,54.1L66,54.1z M98,65.8l-8.5-8.5l-7,7l-6.7-6.7
				C80,51,89.1,50,94.6,55.5C97.4,58.3,98.5,62.1,98,65.8L98,65.8z M82.5,70.6l7-7l6.8,6.8c-2.2,3.4-6,5.6-10.2,5.6
				C79.4,76.1,74,70.7,74,64c0-0.6,0-1.2,0.1-1.8L82.5,70.6z M49,105.6l-4.6-4.6l10.4-10.4l4.6,4.6L49,105.6z"/>
			<polygon id="Path" class="st1" points="76,98 113,98 113,103 76,103 			"/>
			<polygon id="Path_1_" class="st1" points="63,107 90,107 90,112 63,112 			"/>
		</g>
	</g>
</g>
</svg>
